<?xml version="1.0" standalone="no"?><!DOCTYPE svg PUBLIC "-//W3C//DTD SVG 1.1//EN" "http://www.w3.org/Graphics/SVG/1.1/DTD/svg11.dtd"><svg t="1506332964399" class="icon" style="" viewBox="0 0 1024 1024" version="1.1" xmlns="http://www.w3.org/2000/svg" p-id="7337" xmlns:xlink="http://www.w3.org/1999/xlink" width="200" height="200"><defs><style type="text/css"></style></defs><path d="M256 318.72a256 256 0 0 0 246.186667 256 31.146667 31.146667 0 0 0 8.96 0 341.333333 341.333333 0 0 1 341.333333 341.333333 31.573333 31.573333 0 0 0 63.146667 0 403.2 403.2 0 0 0-267.093334-380.16A256 256 0 1 0 256 318.72zM512 512a194.133333 194.133333 0 1 1 194.133333-194.133333A194.133333 194.133333 0 0 1 512 512z m-379.306667 302.08a361.813333 361.813333 0 0 0-23.466666 110.08 31.573333 31.573333 0 0 0 63.146666 0 310.186667 310.186667 0 0 1 20.053334-90.453333l5.12-15.36A341.333333 341.333333 0 0 1 298.666667 660.48a31.573333 31.573333 0 1 0-42.666667-48.213333 404.906667 404.906667 0 0 0-122.453333 186.88l-4.693334 14.933333z" fill="#cdcdcd" p-id="7338"></path></svg>