<?xml version="1.0" standalone="no"?><!DOCTYPE svg PUBLIC "-//W3C//DTD SVG 1.1//EN" "http://www.w3.org/Graphics/SVG/1.1/DTD/svg11.dtd"><svg t="1506333408661" class="icon" style="" viewBox="0 0 1024 1024" version="1.1" xmlns="http://www.w3.org/2000/svg" p-id="8354" xmlns:xlink="http://www.w3.org/1999/xlink" width="200" height="200"><defs><style type="text/css"></style></defs><path d="M510.596 1024c-210.943 0-382.565-171.606-382.565-382.565V450.152h765.13v191.283C893.161 852.394 721.54 1024 510.596 1024zM191.791 513.913v127.52c0 175.78 143.01 318.805 318.804 318.805S829.399 817.21 829.399 641.434V513.913H191.79z" p-id="8355" fill="#cdcdcd"></path><path d="M510.596 864.598c-52.46 0-95.205-42.467-95.641-94.832v-64.57c0-52.741 42.9-95.642 95.641-95.642s95.641 42.9 95.641 95.641v64.57c-0.436 52.366-43.181 94.833-95.641 94.833z m0-191.283c-17.574 0-31.88 14.29-31.88 31.88v63.761c0 17.59 14.306 31.88 31.88 31.88s31.88-14.29 31.88-31.88v-63.76c0-17.59-14.306-31.881-31.88-31.881zM765.64 386.391h-63.761V248.845c0-99.939-85.804-181.258-191.283-181.258s-191.283 81.32-191.283 181.258V386.39h-63.76V248.845c0-135.119 114.414-245.019 255.043-245.019s255.044 109.9 255.044 245.019V386.39z" p-id="8356" fill="#cdcdcd"></path></svg>