<?xml version="1.0" standalone="no"?><!DOCTYPE svg PUBLIC "-//W3C//DTD SVG 1.1//EN" "http://www.w3.org/Graphics/SVG/1.1/DTD/svg11.dtd"><svg t="1506333497638" class="icon" style="" viewBox="0 0 1448 1024" version="1.1" xmlns="http://www.w3.org/2000/svg" p-id="9228" xmlns:xlink="http://www.w3.org/1999/xlink" width="282.8125" height="200"><defs><style type="text/css"></style></defs><path d="M746.688456 91.487058c91.832818 70.794786 190.689208 120.080204 360.316301 120.080204v311.135816c0 148.380917-190.665126 410.336245-360.316301 410.336245-169.627093 0-360.422954-261.957049-360.422954-410.336245V211.568983c169.523881 0 268.485204-49.287139 360.422954-120.081925z m-0.010321 69.96737c-76.650343 59.021744-159.157963 100.112135-300.492945 100.112136v259.400833c0 123.708104 159.071953 342.107996 300.492945 342.107996 141.441634 0 300.403494-218.398172 300.403494-342.107996V261.566564c-141.420992 0-223.839161-41.090391-300.403494-100.112136z" fill="#cdcdcd" p-id="9229"></path><path d="M958.419137 388.138799l-23.26397-23.212364c-5.819433-5.805671-16.629163-4.415751-24.146432 3.104959L695.682838 583.518989l-114.061228-108.63228c-7.807983-7.43642-18.727805-8.635398-24.394141-2.68007l-22.648138 23.814433c-5.664615 5.957049-3.927214 16.811504 3.879048 24.247924l143.065502 136.256955c2.889934 2.752318 6.208198 4.646257 9.526462 5.642252 6.000054 2.461605 14.191641 0.388765 20.250181-5.673216l244.044618-244.225238c7.513829-7.52071 8.891708-18.323559 3.073995-24.13095z" fill="#cdcdcd" p-id="9230"></path></svg>