<?xml version="1.0" standalone="no"?><!DOCTYPE svg PUBLIC "-//W3C//DTD SVG 1.1//EN" "http://www.w3.org/Graphics/SVG/1.1/DTD/svg11.dtd"><svg t="1510726953236" class="icon" style="" viewBox="0 0 1024 1024" version="1.1" xmlns="http://www.w3.org/2000/svg" p-id="4488" xmlns:xlink="http://www.w3.org/1999/xlink" width="128" height="128"><defs><style type="text/css"></style></defs><path d="M512 64C265 64 64 265 64 512s201 448 448 448 448-201 448-448S759 64 512 64z m0 866.9C281 930.9 93.1 743 93.1 512S281 93.1 512 93.1 930.9 281 930.9 512 743 930.9 512 930.9z" p-id="4489" fill="#1296db"></path><path d="M512 136c-207.7 0-376 168.3-376 376 0 99.4 38.6 189.7 101.5 256.9 0.9-4.6 1.8-8.8 2.9-12.5 4.3-11.9 11.5-21.6 21.5-29.2 10-7.5 21.3-13.7 34-18.6 12.7-4.8 25.9-9 39.7-12.5 13.7-3.5 26.2-7.7 37.6-12.6 13-4.8 23.1-10.4 30.4-16.9 7.2-6.5 12.5-13.3 15.8-20.3 3.3-6.9 5-14.1 5.2-21.3 0.3-7.4-0.1-14.5-1.1-21.5-1.1-5.5-2.6-10-4.5-13.8-1.8-3.7-4.1-7.1-6.8-10.1s-5.8-5.8-9.3-8.5c-3.5-2.6-7.5-5.9-11.8-9.7-3.7-2.7-7.2-7-10.4-12.9-3.3-5.9-6-11.9-8.2-17.8-2.2-6.5-4.3-13.7-6.5-21.8-4.9-1.1-9.2-3.5-12.9-7.4-3.3-3.2-6.5-7.8-9.8-13.7-3.2-5.9-5.3-13.7-6.5-23.5-1-7.5-0.9-13.9 0.5-19s2.8-9.3 4.4-12.6c2.2-3.7 4.7-6.7 7.3-8.8-0.5-18.4 0.6-36.7 3.3-55 2.7-15.7 6.8-32.5 12.5-50.5 5.7-18.2 14.5-34.4 26.3-49 10.3-12.9 26.2-25.1 47.8-36.3 21.7-11.3 46.2-17 73.7-17 10.2 0 21 0.8 32.3 2.4 11.3 1.7 22.7 4.8 34 9.3 11.3 4.7 22.4 11 33.1 19.1 10.8 8 20.5 18.6 29.2 31.5 9.8 14 16.9 29.3 21.4 45.7 4.5 16.5 7.9 32.2 10.1 47.3 2.2 17.7 3 35.3 2.5 52.5 3.7 4.3 6.7 9.2 8.8 14.5 2.2 4.3 3.5 9.9 4.1 16.6 0.6 6.8-0.6 14-3.3 21.4-2.6 7.6-5.4 13.5-8.5 17.8-2.9 4.3-5.8 7.6-8.5 9.8-3.2 2.1-6.5 3.7-9.6 4.9-2.2 8-4.3 15.3-6.5 21.8-2.2 5.9-4.8 11.9-7.7 17.8-2.9 5.9-6.4 10.5-10.1 13.7-7.6 5.9-14.6 12-21.1 18.2-6.5 6.2-10.2 14.8-11.3 25.5-0.5 7.6-0.8 14.3-0.8 20.2 0 5.9 1.2 11.6 3.6 17 2.5 5.3 6.2 10.8 11.3 16.1 5.1 5.4 12.6 11.3 22.2 17.8 12.5 8.2 26.7 14.2 42.5 18.3 15.9 4 31.4 8.7 46.5 14.1 15.1 5.4 28.2 12.5 39.2 21.1 11 8.5 17.8 21.2 20.5 38.1C849.5 701.5 888 611.2 888 512c0-207.7-168.3-376-376-376z" p-id="4490" fill="#1296db"></path></svg>